<svg fill="#000000" xmlns="http://www.w3.org/2000/svg" xmlns:xlink="http://www.w3.org/1999/xlink" version="1.1" x="0px" y="0px" viewBox="0 0 100 100" enable-background="new 0 0 100 100" xml:space="preserve"><g display="none"><rect x="-660.877" y="-397.172" display="inline" fill="#000000" width="1370.931" height="1263.231"/></g><g display="none" opacity="0.31"><g display="inline"><path d="M50,8.339c-24.813,0-45,20.187-45,45c0,9.966,3.192,19.379,9.224,27.265v7.265c0,0.844,0.685,1.528,1.528,1.528    c0.844,0,1.528-0.684,1.528-1.528V86.35V66.29c0-3.71,3.013-6.729,6.717-6.729h5.193c3.077,0,5.708,2.083,6.488,4.974v3.516    v13.187v8.851c0,0.844,0.685,1.528,1.528,1.528c0.843,0,1.527-0.683,1.528-1.526c0-0.001,0-0.002,0-0.002V59.476    c0-4.53,3.685-8.215,8.214-8.215h6.117c4.523,0,8.203,3.685,8.203,8.215V90.13v0.003c0,0.844,0.685,1.528,1.528,1.528    c0.844,0,1.528-0.684,1.528-1.528v-7.248V68.317v-3.516c0.781-2.894,3.412-4.975,6.488-4.975h5.193    c3.704,0,6.717,3.019,6.717,6.729v20.06v1.52c0,0.844,0.685,1.528,1.528,1.528s1.528-0.684,1.528-1.528v-7.528    C91.81,72.725,95,63.311,95,53.339C95,28.526,74.813,8.339,50,8.339z M26.596,55.379c-3.998,0-7.25-3.252-7.25-7.25    s3.252-7.25,7.25-7.25s7.25,3.252,7.25,7.25S30.594,55.379,26.596,55.379z M40.907,38.089c0-5.018,4.082-9.1,9.1-9.1    s9.1,4.082,9.1,9.1c0,5.018-4.082,9.1-9.1,9.1S40.907,43.107,40.907,38.089z M73.408,55.645c-3.998,0-7.25-3.252-7.25-7.25    s3.252-7.25,7.25-7.25s7.25,3.252,7.25,7.25S77.406,55.645,73.408,55.645z M85.781,75.224v-8.667c0-4.43-2.958-8.177-6.999-9.378    c2.955-1.812,4.933-5.062,4.933-8.782c0-5.692-4.614-10.306-10.306-10.306c-5.692,0-10.306,4.614-10.306,10.306    c0,3.719,1.977,6.969,4.931,8.781c-1.39,0.412-2.656,1.123-3.718,2.067c-0.104-5.073-3.568-9.325-8.254-10.622    c3.644-2.099,6.103-6.025,6.103-10.532c0-6.714-5.443-12.157-12.157-12.157c-6.714,0-12.157,5.443-12.157,12.157    c0,4.507,2.459,8.433,6.103,10.532c-4.612,1.275-8.037,5.407-8.25,10.367c-1.064-0.95-2.335-1.664-3.731-2.078    c2.954-1.812,4.93-5.062,4.93-8.781c0-5.692-4.614-10.306-10.306-10.306c-5.692,0-10.306,4.614-10.306,10.306    c0,3.72,1.978,6.97,4.933,8.782c-4.041,1.201-6.999,4.948-6.999,9.378v8.931c-4.044-6.562-6.167-14.038-6.167-21.882    c0-23.127,18.816-41.943,41.943-41.943s41.943,18.816,41.943,41.943C91.943,61.186,89.822,68.662,85.781,75.224z"/></g></g><g><path d="M16.354,34.24c0,7.647,6.221,13.868,13.868,13.868c7.647,0,13.868-6.221,13.868-13.868c0-7.647-6.221-13.868-13.868-13.868   C22.576,20.372,16.354,26.593,16.354,34.24z"/><path d="M49.839,60.006c-3.152-2.949-7.372-4.77-12.019-4.77H22.624C12.906,55.236,5,63.142,5,72.86h34.982   C41.625,67.484,45.179,62.948,49.839,60.006z"/><path d="M55.909,41.008c0,7.647,6.221,13.868,13.868,13.868c7.647,0,13.868-6.221,13.868-13.868   c0-7.647-6.221-13.868-13.868-13.868C62.13,27.14,55.909,33.361,55.909,41.008z"/><path d="M77.376,62.004H62.179c-9.718,0-17.624,7.906-17.624,17.624H95C95,69.91,87.094,62.004,77.376,62.004z"/></g></svg>
